<svg id="Layer_1" data-name="Layer 1" xmlns="http://www.w3.org/2000/svg" xmlns:xlink="http://www.w3.org/1999/xlink" viewBox="0 0 100 100"><defs><style>.cls-1{fill:url(#linear-gradient);}.cls-2{fill:url(#linear-gradient-2);}.cls-3{fill:url(#linear-gradient-3);}.cls-4{fill:url(#linear-gradient-4);}</style><linearGradient id="linear-gradient" x1="11.86" y1="12.81" x2="107.66" y2="122.2" gradientUnits="userSpaceOnUse"><stop offset="0" stop-color="#86198f"/><stop offset="0.37" stop-color="#c026d3"/><stop offset="0.75" stop-color="#f05b2a"/><stop offset="1" stop-color="#f9ad42"/></linearGradient><linearGradient id="linear-gradient-2" x1="-3.05" y1="0.32" x2="138.24" y2="161.63" xlink:href="#linear-gradient"/><linearGradient id="linear-gradient-3" x1="10.97" y1="-27.33" x2="152.25" y2="133.98" xlink:href="#linear-gradient"/><linearGradient id="linear-gradient-4" x1="10.76" y1="-5.74" x2="133.16" y2="134.01" xlink:href="#linear-gradient"/></defs><title>logo-forum</title><g id="_Group_" data-name="&lt;Group&gt;"><path id="_Path_" data-name="&lt;Path&gt;" class="cls-1" d="M100,20.19A20.39,20.39,0,0,0,79.41,0H30.72A20.39,20.39,0,0,0,10.13,20.19V52.28A101.61,101.61,0,0,1,5.4,82.91L0,100l12.1-4.67a107.29,107.29,0,0,1,38.63-7.19H79.41a21,21,0,0,0,6.06-.89H97.55L73.56,78h-38A15.93,15.93,0,0,1,19.44,62.22V24.92A15.93,15.93,0,0,1,35.52,9.15h38A15.93,15.93,0,0,1,89.64,24.92v37.3L95.45,80.6A19.86,19.86,0,0,0,100,67.95Z"/><g id="_Group_2" data-name="&lt;Group&gt;"><ellipse id="_Path_2" data-name="&lt;Path&gt;" class="cls-2" cx="36.11" cy="45.03" rx="5.07" ry="4.97"/><ellipse id="_Path_3" data-name="&lt;Path&gt;" class="cls-3" cx="74.34" cy="45.03" rx="5.07" ry="4.97"/></g><ellipse id="_Path_4" data-name="&lt;Path&gt;" class="cls-4" cx="55.23" cy="45.03" rx="7.35" ry="7.21"/></g></svg>