<svg id="Layer_1" data-name="Layer 1" xmlns="http://www.w3.org/2000/svg" viewBox="0 0 100 100"><defs><style>.cls-1{fill:#fff;}</style></defs><title>logo-forum-white</title><g id="_Group_" data-name="&lt;Group&gt;"><path id="_Path_" data-name="&lt;Path&gt;" class="cls-1" d="M100,20.19A20.39,20.39,0,0,0,79.41,0H30.72A20.39,20.39,0,0,0,10.13,20.19V52.28A101.61,101.61,0,0,1,5.4,82.91L0,100l12.1-4.67a107.29,107.29,0,0,1,38.63-7.19H79.41a21,21,0,0,0,6.06-.89H97.55L73.56,78h-38A15.93,15.93,0,0,1,19.44,62.22V24.92A15.93,15.93,0,0,1,35.52,9.15h38A15.93,15.93,0,0,1,89.64,24.92v37.3L95.45,80.6A19.86,19.86,0,0,0,100,67.95Z"/><g id="_Group_2" data-name="&lt;Group&gt;"><ellipse id="_Path_2" data-name="&lt;Path&gt;" class="cls-1" cx="36.11" cy="45.03" rx="5.07" ry="4.97"/><ellipse id="_Path_3" data-name="&lt;Path&gt;" class="cls-1" cx="74.34" cy="45.03" rx="5.07" ry="4.97"/></g><ellipse id="_Path_4" data-name="&lt;Path&gt;" class="cls-1" cx="55.23" cy="45.03" rx="7.35" ry="7.21"/></g></svg>